<?xml version="1.0" encoding="UTF-8"?>
<svg width="8px" height="8px" viewBox="0 0 8 8" version="1.1" xmlns="http://www.w3.org/2000/svg" xmlns:xlink="http://www.w3.org/1999/xlink">
    <!-- Generator: Sketch 52.5 (67469) - http://www.bohemiancoding.com/sketch -->
    <title>Imported Layers Copy@3x</title>
    <desc>Created with Sketch.</desc>
    <g id="页面1" stroke="none" stroke-width="1" fill="none" fill-rule="evenodd" opacity="0.5">
        <g id="iPhone-8" transform="translate(-231.000000, -356.000000)" fill="#FFFFFF">
            <g id="编组-3" transform="translate(15.000000, 293.000000)">
                <g id="编组-2" transform="translate(188.500000, 31.500000)">
                    <g id="编组">
                        <path d="M34.987966,34.660847 C34.9399022,34.4821341 34.788271,34.4759798 34.788271,34.4759798 L32.5768831,34.34996 L31.7327325,32.1125901 C31.7300623,32.1040027 31.6768407,32 31.5276058,32 C31.3820453,32 31.3238028,32.0976337 31.3198089,32.1125901 L30.4847644,34.3401084 C30.4847644,34.3401084 28.204225,34.4781267 28.1926313,34.4789615 C28.0677478,34.4880022 28.0151881,34.6095136 28.0062417,34.6519018 C27.9834194,34.7602459 28.0282196,34.8428279 28.0595089,34.8755315 L29.8062352,36.4085933 L29.254826,38.7438355 C29.254826,38.7438355 29.2230802,38.8624844 29.3641675,38.9565401 C29.4953957,39.0439882 29.6123599,38.9724267 29.6123599,38.9724267 L31.5331516,37.7229393 L33.4504744,38.9719974 C33.4504744,38.9719974 33.5729844,39.0459919 33.7023183,38.9426094 C33.8342996,38.8371278 33.7868292,38.6918103 33.7868292,38.6918103 L33.2396878,36.392158 L34.9366158,34.9252429 C34.9366158,34.9252429 35.0331313,34.8288257 34.987966,34.660847" id="Imported-Layers-Copy"></path>
                    </g>
                </g>
            </g>
        </g>
    </g>
</svg>